<svg xmlns="http://www.w3.org/2000/svg" width="168" height="168" viewBox="0 0 168 168">
  <g id="Group_4216" data-name="Group 4216" transform="translate(-891 -385)">
    <g id="Group_4215" data-name="Group 4215" transform="translate(891.261 385.261)">
      <rect id="Rectangle_1906" data-name="Rectangle 1906" width="168" height="168" transform="translate(-0.261 -0.261)" fill="none"/>
      <path id="Path_3728" data-name="Path 3728" d="M151.69,38.487V25.092a6.7,6.7,0,0,0-6.7-6.7H57.927C53.008,18.395,49.609,5,44.533,5H7.7A6.7,6.7,0,0,0,1,11.7V135.6a6.7,6.7,0,0,0,6.7,6.7H138.3a6.7,6.7,0,0,0,6.7-6.7" transform="translate(2.371 11.766)" fill="none" stroke="#dedede" stroke-linecap="round" stroke-miterlimit="10" stroke-width="6"/>
      <path id="Path_3729" data-name="Path 3729" d="M1,112.111,17.743,21.7a6.7,6.7,0,0,1,6.7-6.7h130.6a6.7,6.7,0,0,1,6.7,6.7l-16.743,90.414" transform="translate(2.371 35.253)" fill="none" stroke="#dedede" stroke-linecap="round" stroke-miterlimit="10" stroke-width="6"/>
    </g>
    <g id="Group_4210" data-name="Group 4210" transform="translate(688.134 -354.177) rotate(45)">
      <line id="Line_584" data-name="Line 584" x2="20" transform="translate(782.5 386.81)" fill="none" stroke="#f7a015" stroke-linecap="round" stroke-width="8"/>
      <line id="Line_585" data-name="Line 585" y2="20.619" transform="translate(792.5 376.5)" fill="none" stroke="#f7a015" stroke-linecap="round" stroke-width="8"/>
    </g>
    <path id="Path_3730" data-name="Path 3730" d="M122.708,116.255l-17.2-17.2a31.97,31.97,0,1,0-6.453,6.453l17.2,17.2a4.57,4.57,0,0,0,6.453-6.453ZM57.125,79.939a22.813,22.813,0,1,1,22.813,22.813A22.813,22.813,0,0,1,57.125,79.939Z" transform="translate(894.312 400.334)" fill="#dedede" stroke="#fff" stroke-width="3"/>
  </g>
</svg>
