<svg id="Group_2535" data-name="Group 2535" xmlns="http://www.w3.org/2000/svg" width="171.139" height="88.375" viewBox="0 0 171.139 88.375">
  <g id="Group_2534" data-name="Group 2534" transform="translate(0 57.016)">
    <path id="Path_2366" data-name="Path 2366" d="M90.77,78.741a15.077,15.077,0,0,1,4.577.605,6.369,6.369,0,0,1,3.039,2,8.756,8.756,0,0,1,1.676,3.764,27.955,27.955,0,0,1,.518,5.855,27.955,27.955,0,0,1-.518,5.855,8.756,8.756,0,0,1-1.676,3.764,6.369,6.369,0,0,1-3.039,2,15.076,15.076,0,0,1-4.577.605c-1.8,0-3.328-.029-4.8-.085s-2.866-.132-4.179-.225l1.8-3.317c.921.047,1.98.085,3.179.12s2.533.053,4.007.053a5.611,5.611,0,0,0,3.161-.778,4.358,4.358,0,0,0,1.641-2.694,22.768,22.768,0,0,0,.482-5.3,22.768,22.768,0,0,0-.482-5.3,4.438,4.438,0,0,0-1.641-2.711,5.514,5.514,0,0,0-3.161-.8q-2.141,0-3.817.035t-3.264.035l-1.9-3.179q1.97-.136,4.162-.225t4.82-.088Zm-4.662.31v23.833H81.792V79.051Z" transform="translate(-15.867 -78.568)" fill="#fff"/>
    <path id="Path_2367" data-name="Path 2367" d="M101.59,82.228a11.9,11.9,0,0,1,4.957.863,5.185,5.185,0,0,1,2.659,2.831,13.9,13.9,0,0,1,.813,5.215,13.779,13.779,0,0,1-.813,5.2,5.244,5.244,0,0,1-2.659,2.831,11.642,11.642,0,0,1-4.957.88,11.3,11.3,0,0,1-4.887-.88,5.339,5.339,0,0,1-2.676-2.831,13.52,13.52,0,0,1-.828-5.2,13.632,13.632,0,0,1,.828-5.215A5.248,5.248,0,0,1,96.7,83.09,11.642,11.642,0,0,1,101.59,82.228Zm0,3.179a4.873,4.873,0,0,0-2.4.5,2.836,2.836,0,0,0-1.261,1.743,16.206,16.206,0,0,0,0,6.978,2.789,2.789,0,0,0,1.261,1.729,5.023,5.023,0,0,0,2.4.483,5.287,5.287,0,0,0,2.454-.483,2.693,2.693,0,0,0,1.261-1.729,16.97,16.97,0,0,0,0-6.978,2.763,2.763,0,0,0-1.261-1.743A5.064,5.064,0,0,0,101.59,85.407Z" transform="translate(-5.131 -75.284)" fill="#fff"/>
    <path id="Path_2368" data-name="Path 2368" d="M111.791,82.228c.576,0,1.209.024,1.9.07a17.332,17.332,0,0,1,2.106.275,9,9,0,0,1,1.933.588l-.483,2.626c-.85-.047-1.7-.082-2.539-.1s-1.57-.035-2.193-.035a6.815,6.815,0,0,0-2.781.465,2.8,2.8,0,0,0-1.467,1.658,12.518,12.518,0,0,0,0,6.668,2.867,2.867,0,0,0,1.467,1.676,6.6,6.6,0,0,0,2.781.483c.346,0,.8-.012,1.366-.035s1.176-.058,1.83-.1,1.3-.1,1.916-.173l.415,2.694a12.73,12.73,0,0,1-3.006.8,22.768,22.768,0,0,1-3.282.243,11.57,11.57,0,0,1-4.87-.863,5.206,5.206,0,0,1-2.643-2.816,13.877,13.877,0,0,1-.813-5.232,13.655,13.655,0,0,1,.829-5.232,5.192,5.192,0,0,1,2.657-2.8,11.737,11.737,0,0,1,4.87-.845Z" transform="translate(4.495 -75.284)" fill="#fff"/>
    <path id="Path_2369" data-name="Path 2369" d="M124.095,84.786v2.9H111.867V84.959l3.317-.173Zm-5.04-4.837V96.634a2.068,2.068,0,0,0,.464,1.5,2.233,2.233,0,0,0,1.605.465h2.348l.452,2.936a11.615,11.615,0,0,1-1.417.31c-.553.091-1.093.155-1.623.19s-.98.053-1.349.053a4.726,4.726,0,0,1-3.435-1.19,4.569,4.569,0,0,1-1.227-3.437V79.952h4.181Z" transform="translate(12.433 -77.427)" fill="#fff"/>
    <path id="Path_2370" data-name="Path 2370" d="M127.822,82.228a11.9,11.9,0,0,1,4.959.863,5.188,5.188,0,0,1,2.657,2.831,13.9,13.9,0,0,1,.813,5.215,13.779,13.779,0,0,1-.813,5.2,5.247,5.247,0,0,1-2.657,2.831,11.651,11.651,0,0,1-4.959.88,11.305,11.305,0,0,1-4.887-.88,5.333,5.333,0,0,1-2.675-2.831,13.511,13.511,0,0,1-.829-5.2,13.66,13.66,0,0,1,.829-5.215,5.242,5.242,0,0,1,2.675-2.831A11.648,11.648,0,0,1,127.822,82.228Zm0,3.179a4.872,4.872,0,0,0-2.4.5,2.83,2.83,0,0,0-1.26,1.743,16.192,16.192,0,0,0,0,6.978,2.787,2.787,0,0,0,1.26,1.729,5.022,5.022,0,0,0,2.4.483,5.293,5.293,0,0,0,2.455-.483,2.691,2.691,0,0,0,1.26-1.729,16.95,16.95,0,0,0,0-6.978,2.76,2.76,0,0,0-1.26-1.743A5.071,5.071,0,0,0,127.822,85.407Z" transform="translate(19.551 -75.284)" fill="#fff"/>
    <path id="Path_2371" data-name="Path 2371" d="M133.3,82.643l.553,3.317.378.483V99.6h-4.179V82.643Zm8.292-.415-.415,3.869h-1.209a8.73,8.73,0,0,0-2.727.45q-1.383.447-3.455,1.348l-.277-2.454a15.847,15.847,0,0,1,3.66-2.366,8.674,8.674,0,0,1,3.593-.845h.827Z" transform="translate(29.546 -75.284)" fill="#fff"/>
    <path id="Path_2372" data-name="Path 2372" d="M57.6,78.686q1.623,0,2.764.088c.76.058,1.462.137,2.106.243a19.925,19.925,0,0,1,2,.433l-.38,3.211q-1.07-.07-2-.12c-.623-.032-1.284-.064-1.986-.085s-1.538-.035-2.5-.035a5.43,5.43,0,0,0-3.144.8,4.371,4.371,0,0,0-1.606,2.659,22.3,22.3,0,0,0-.465,5.147,22.3,22.3,0,0,0,.465,5.147,4.37,4.37,0,0,0,1.606,2.658,5.428,5.428,0,0,0,3.144.8q2.312,0,3.887-.088c1.047-.058,2.077-.143,3.091-.26l.38,3.179a18.494,18.494,0,0,1-3.211.69,34.5,34.5,0,0,1-4.144.208,11.833,11.833,0,0,1-5.735-1.19,6.824,6.824,0,0,1-3.091-3.887,22.394,22.394,0,0,1-.951-7.253,22.4,22.4,0,0,1,.951-7.253,6.836,6.836,0,0,1,3.091-3.887A11.788,11.788,0,0,1,57.6,78.689Z" transform="translate(-47.824 -78.616)" fill="#fff"/>
    <path id="Path_2373" data-name="Path 2373" d="M61.5,78.65a1.1,1.1,0,0,1,1.243,1.243v1.933A1.1,1.1,0,0,1,61.5,83.069H59.638a1.1,1.1,0,0,1-1.243-1.243V79.893a1.1,1.1,0,0,1,1.243-1.243Zm1.141,7.358v16.96H58.5V86.009Z" transform="translate(-37.878 -78.65)" fill="#fff"/>
    <path id="Path_2374" data-name="Path 2374" d="M74.5,84.786v2.9H62.274V84.959l3.317-.173ZM69.46,79.949V96.634a2.07,2.07,0,0,0,.465,1.5,2.231,2.231,0,0,0,1.606.465H73.88l.45,2.936a11.61,11.61,0,0,1-1.416.31q-.829.136-1.623.19c-.529.035-.98.053-1.348.053a4.729,4.729,0,0,1-3.436-1.19,4.568,4.568,0,0,1-1.225-3.437V79.952H69.46Z" transform="translate(-34.227 -77.427)" fill="#fff"/>
    <path id="Path_2375" data-name="Path 2375" d="M73.673,82.443l3.764,11.675c.114.392.219.79.31,1.193s.173.8.243,1.19h.863l-1.313,2.9H76.433a1.409,1.409,0,0,1-.863-.278,1.356,1.356,0,0,1-.518-.76L69.215,82.44h4.457Zm13.679,0L81,99.921a16.593,16.593,0,0,1-1.123,2.4,8.943,8.943,0,0,1-1.711,2.158A7.622,7.622,0,0,1,75.708,106a7.468,7.468,0,0,1-3.281.415l-.345-2.486a8.412,8.412,0,0,0,3.229-1.588,6.832,6.832,0,0,0,1.813-2.556l.933-2.211q.312-.759.605-1.743t.5-1.711l3.7-11.675h4.489Z" transform="translate(-27.697 -75.084)" fill="#fff"/>
  </g>
  <g id="Group_2533" data-name="Group 2533" transform="translate(57.192 0)">
    <path id="Path_3061" data-name="Path 3061" d="M31.1,87.176l14.96-14.995a10.944,10.944,0,0,1,15.46,15.495L46.556,102.665a7.14,7.14,0,0,1-10.114,0L31.1,97.313a7.179,7.179,0,0,1,0-10.137" transform="translate(-7.21 -68.973)" fill="#38ada0"/>
    <path id="Path_3062" data-name="Path 3062" d="M20.979,77.9a10.914,10.914,0,0,1,15.46,0L51.392,92.889a7.179,7.179,0,0,1,0,10.137l-5.341,5.358a7.14,7.14,0,0,1-10.113,0L20.979,93.389A10.965,10.965,0,0,1,20.979,77.9Z" transform="translate(-17.776 -63.592)" fill="#044570"/>
    <path id="Path_3063" data-name="Path 3063" d="M28.42,93.508a7.255,7.255,0,0,1-8.985-.1l4.539,4.551,1.755,1.761,8.648,8.663a7.14,7.14,0,0,0,10.113,0L59.445,93.391A10.944,10.944,0,1,0,43.985,77.9" transform="translate(-16.215 -63.596)" fill="#006fac"/>
  </g>
</svg>
