<svg xmlns="http://www.w3.org/2000/svg" xmlns:xlink="http://www.w3.org/1999/xlink" width="232.496" height="53.5" viewBox="0 0 232.496 53.5">
  <defs>
    <clipPath id="clip-path">
      <rect id="Rectangle_1444" data-name="Rectangle 1444" width="232.496" height="53.5" transform="translate(16 67.193)" fill="#fff"/>
    </clipPath>
  </defs>
  <g id="Group_2277" data-name="Group 2277" transform="translate(-16 -67.193)" clip-path="url(#clip-path)">
    <path id="Path_2855" data-name="Path 2855" d="M31.095,87.144,46.028,72.176A10.925,10.925,0,0,1,61.461,87.644L46.525,102.606a7.128,7.128,0,0,1-10.1,0L31.1,97.264a7.167,7.167,0,0,1,0-10.119" transform="translate(12.193 1.668)" fill="#38ada0"/>
    <path id="Path_2856" data-name="Path 2856" d="M20.973,77.895a10.9,10.9,0,0,1,15.432,0L51.333,92.857a7.166,7.166,0,0,1,0,10.119L46,108.325a7.127,7.127,0,0,1-10.1,0L20.973,93.356A10.946,10.946,0,0,1,20.973,77.895Z" transform="translate(1.665 7.029)" fill="#044570"/>
    <path id="Path_2857" data-name="Path 2857" d="M28.4,93.475a7.242,7.242,0,0,1-8.969-.1l4.531,4.543,1.752,1.757,8.633,8.648a7.128,7.128,0,0,0,10.1,0L59.375,93.358A10.925,10.925,0,0,0,43.942,77.89" transform="translate(3.221 7.025)" fill="#006fac"/>
    <path id="Path_2858" data-name="Path 2858" d="M90.754,78.741a15.05,15.05,0,0,1,4.569.6,6.358,6.358,0,0,1,3.034,2A8.741,8.741,0,0,1,100.03,85.1a27.907,27.907,0,0,1,.517,5.845,27.907,27.907,0,0,1-.517,5.845,8.741,8.741,0,0,1-1.673,3.757,6.358,6.358,0,0,1-3.034,2,15.049,15.049,0,0,1-4.569.6c-1.793,0-3.322-.029-4.794-.085s-2.861-.131-4.172-.225l1.793-3.311c.92.047,1.977.085,3.174.12s2.528.053,4,.053a5.6,5.6,0,0,0,3.156-.777,4.35,4.35,0,0,0,1.638-2.689,22.731,22.731,0,0,0,.482-5.293,22.731,22.731,0,0,0-.482-5.293,4.43,4.43,0,0,0-1.638-2.706,5.5,5.5,0,0,0-3.156-.794q-2.137,0-3.81.035t-3.258.035l-1.9-3.174q1.966-.136,4.155-.225t4.811-.088ZM86.1,79.05v23.791H81.792V79.05Z" transform="translate(61.674 10.822)" fill="#006fac"/>
    <path id="Path_2859" data-name="Path 2859" d="M101.575,82.228a11.881,11.881,0,0,1,4.948.861,5.176,5.176,0,0,1,2.654,2.826,13.879,13.879,0,0,1,.812,5.206,13.755,13.755,0,0,1-.812,5.191,5.235,5.235,0,0,1-2.654,2.826,11.621,11.621,0,0,1-4.948.879,11.28,11.28,0,0,1-4.879-.879,5.329,5.329,0,0,1-2.671-2.826A13.5,13.5,0,0,1,93.2,91.12a13.609,13.609,0,0,1,.826-5.206A5.239,5.239,0,0,1,96.7,83.089,11.622,11.622,0,0,1,101.575,82.228Zm0,3.174a4.865,4.865,0,0,0-2.4.5,2.831,2.831,0,0,0-1.258,1.74,16.179,16.179,0,0,0,0,6.966,2.785,2.785,0,0,0,1.258,1.726,5.015,5.015,0,0,0,2.4.482,5.278,5.278,0,0,0,2.449-.482,2.689,2.689,0,0,0,1.258-1.726,16.941,16.941,0,0,0,0-6.966,2.758,2.758,0,0,0-1.258-1.74A5.056,5.056,0,0,0,101.575,85.4Z" transform="translate(72.371 14.094)" fill="#006fac"/>
    <path id="Path_2860" data-name="Path 2860" d="M111.777,82.228c.575,0,1.207.023,1.9.07a17.3,17.3,0,0,1,2.1.275,8.982,8.982,0,0,1,1.93.587l-.482,2.622c-.849-.047-1.7-.082-2.534-.1s-1.567-.035-2.189-.035a6.8,6.8,0,0,0-2.776.464,2.793,2.793,0,0,0-1.465,1.655,12.495,12.495,0,0,0,0,6.657,2.862,2.862,0,0,0,1.465,1.673,6.588,6.588,0,0,0,2.776.482c.345,0,.8-.012,1.364-.035s1.174-.058,1.827-.1,1.294-.1,1.912-.172l.415,2.689a12.706,12.706,0,0,1-3,.794,22.729,22.729,0,0,1-3.276.242,11.55,11.55,0,0,1-4.861-.861,5.2,5.2,0,0,1-2.639-2.811,13.853,13.853,0,0,1-.812-5.223,13.632,13.632,0,0,1,.827-5.223,5.183,5.183,0,0,1,2.652-2.794,11.717,11.717,0,0,1,4.861-.844Z" transform="translate(81.962 14.094)" fill="#006fac"/>
    <path id="Path_2861" data-name="Path 2861" d="M124.073,84.778v2.9H111.867V84.95l3.311-.172Zm-5.032-4.829V96.6a2.064,2.064,0,0,0,.463,1.5,2.229,2.229,0,0,0,1.6.464h2.344l.451,2.931a11.594,11.594,0,0,1-1.414.31c-.552.09-1.091.155-1.62.19s-.978.053-1.347.053a4.718,4.718,0,0,1-3.429-1.188,4.561,4.561,0,0,1-1.224-3.43V79.952h4.173Z" transform="translate(89.872 11.958)" fill="#006fac"/>
    <path id="Path_2862" data-name="Path 2862" d="M127.808,82.228a11.881,11.881,0,0,1,4.95.861,5.179,5.179,0,0,1,2.652,2.826,13.879,13.879,0,0,1,.812,5.206,13.755,13.755,0,0,1-.812,5.191,5.238,5.238,0,0,1-2.652,2.826,11.631,11.631,0,0,1-4.95.879,11.286,11.286,0,0,1-4.879-.879,5.324,5.324,0,0,1-2.67-2.826,13.487,13.487,0,0,1-.827-5.191,13.637,13.637,0,0,1,.827-5.206,5.233,5.233,0,0,1,2.67-2.826A11.628,11.628,0,0,1,127.808,82.228Zm0,3.174a4.864,4.864,0,0,0-2.4.5,2.825,2.825,0,0,0-1.257,1.74,16.162,16.162,0,0,0,0,6.966,2.782,2.782,0,0,0,1.257,1.726,5.013,5.013,0,0,0,2.4.482,5.284,5.284,0,0,0,2.451-.482,2.686,2.686,0,0,0,1.257-1.726,16.923,16.923,0,0,0,0-6.966,2.756,2.756,0,0,0-1.257-1.74A5.062,5.062,0,0,0,127.808,85.4Z" transform="translate(96.964 14.094)" fill="#006fac"/>
    <path id="Path_2863" data-name="Path 2863" d="M133.3,82.642l.552,3.311.378.482V99.572h-4.171V82.642Zm8.277-.415-.415,3.863h-1.207a8.715,8.715,0,0,0-2.722.45q-1.38.447-3.449,1.346l-.277-2.45a15.821,15.821,0,0,1,3.654-2.362,8.658,8.658,0,0,1,3.586-.844h.825Z" transform="translate(106.922 14.094)" fill="#006fac"/>
    <path id="Path_2864" data-name="Path 2864" d="M57.581,78.686q1.621,0,2.759.088c.759.058,1.46.137,2.1.242a19.878,19.878,0,0,1,2,.432l-.38,3.206q-1.069-.07-2-.12c-.622-.032-1.282-.064-1.982-.085s-1.536-.035-2.5-.035a5.42,5.42,0,0,0-3.138.794,4.363,4.363,0,0,0-1.6,2.654A22.256,22.256,0,0,0,52.375,91a22.257,22.257,0,0,0,.464,5.138,4.362,4.362,0,0,0,1.6,2.654,5.419,5.419,0,0,0,3.138.794q2.308,0,3.88-.088c1.045-.058,2.073-.143,3.086-.26l.38,3.174a18.46,18.46,0,0,1-3.206.689,34.437,34.437,0,0,1-4.137.207,11.813,11.813,0,0,1-5.725-1.188,6.812,6.812,0,0,1-3.086-3.88A22.355,22.355,0,0,1,47.824,91a22.356,22.356,0,0,1,.949-7.24,6.824,6.824,0,0,1,3.086-3.88,11.767,11.767,0,0,1,5.725-1.191Z" transform="translate(29.834 10.774)" fill="#006fac"/>
    <path id="Path_2865" data-name="Path 2865" d="M61.5,78.65a1.1,1.1,0,0,1,1.241,1.241v1.93A1.1,1.1,0,0,1,61.5,83.062H59.635a1.1,1.1,0,0,1-1.241-1.241v-1.93a1.1,1.1,0,0,1,1.241-1.241ZM62.637,86v16.93H58.5V86Z" transform="translate(39.743 10.74)" fill="#006fac"/>
    <path id="Path_2866" data-name="Path 2866" d="M74.481,84.778v2.9H62.274V84.95l3.311-.172Zm-5.033-4.829V96.6a2.067,2.067,0,0,0,.464,1.5,2.227,2.227,0,0,0,1.6.464h2.344l.45,2.931a11.589,11.589,0,0,1-1.413.31q-.828.136-1.62.19c-.528.035-.978.053-1.346.053a4.72,4.72,0,0,1-3.43-1.188,4.56,4.56,0,0,1-1.223-3.43V79.952h4.172Z" transform="translate(43.381 11.958)" fill="#006fac"/>
    <path id="Path_2867" data-name="Path 2867" d="M73.665,82.443,77.422,94.1c.114.391.219.788.309,1.191s.172.8.242,1.188h.861l-1.311,2.9h-1.1a1.406,1.406,0,0,1-.861-.277,1.354,1.354,0,0,1-.517-.759l-5.827-15.9h4.449Zm13.655,0L80.975,99.89a16.563,16.563,0,0,1-1.121,2.4,8.928,8.928,0,0,1-1.708,2.155,7.607,7.607,0,0,1-2.45,1.518,7.455,7.455,0,0,1-3.276.415l-.344-2.481a8.4,8.4,0,0,0,3.223-1.585,6.82,6.82,0,0,0,1.81-2.552l.931-2.207q.311-.758.6-1.74t.5-1.708l3.69-11.655h4.482Z" transform="translate(49.887 14.293)" fill="#006fac"/>
  </g>
</svg>
