<svg xmlns="http://www.w3.org/2000/svg" width="38.294" height="25.131" viewBox="0 0 38.294 25.131">
  <g id="Amex_3_" transform="translate(0 0)">
    <g id="Amex">
      <g id="Group_4296" data-name="Group 4296">
        <path id="Path_3723" data-name="Path 3723" d="M39.9,9.5H6.393A2.4,2.4,0,0,0,4,11.893V32.237a2.4,2.4,0,0,0,2.393,2.393H39.9a2.4,2.4,0,0,0,2.393-2.393V11.893A2.4,2.4,0,0,0,39.9,9.5Z" transform="translate(-4 -9.5)" fill="#3498d8" fill-rule="evenodd"/>
      </g>
    </g>
    <g id="Amex_1_" transform="translate(3.47 8.377)">
      <g id="Group_4297" data-name="Group 4297">
        <path id="Path_3724" data-name="Path 3724" d="M11.447,21.047h1.915L12.4,18.654ZM38.134,16.5H33.227l-1.2,1.316L30.954,16.5H20.542l-.957,2.154L18.628,16.5H14.439v.957L13.96,16.5H10.37L6.9,24.877h4.188l.479-1.316h1.2l.479,1.316H17.91v-.957l.359.957h2.393l.359-1.077v1.077h9.574l1.2-1.316,1.077,1.316h4.906l-3.111-4.188Zm-14.48,7.18H22.337V19.013L20.3,23.68h-1.2l-2.034-4.667V23.68H14.319l-.479-1.316H10.969L10.49,23.68H8.934L11.447,17.7h2.034l2.274,5.624V17.7h2.274l1.8,4.069L21.5,17.7h2.274V23.68Zm11.847,0h-1.8L32.15,21.646l-1.8,2.034H24.97V17.7h5.5l1.675,1.915,1.8-1.915h1.675l-2.633,2.992Zm-9.215-4.787V19.97h2.992v1.2H26.286v1.2h3.351l1.556-1.8-1.436-1.675Z" transform="translate(-6.9 -16.5)" fill="#fff" fill-rule="evenodd"/>
      </g>
    </g>
  </g>
</svg>
