<svg xmlns="http://www.w3.org/2000/svg" width="40.486" height="40.486" viewBox="0 0 40.486 40.486">
  <g id="Group_1713" data-name="Group 1713" transform="translate(0)">
    <circle id="Ellipse_61" data-name="Ellipse 61" cx="20.243" cy="20.243" r="20.243" transform="translate(0 0)" fill="#ff8475"/>
    <circle id="Ellipse_62" data-name="Ellipse 62" cx="17.047" cy="17.047" r="17.047" transform="translate(3.196 3.196)" fill="#f85565" opacity="0.4"/>
    <circle id="Ellipse_63" data-name="Ellipse 63" cx="5.034" cy="5.034" r="5.034" transform="translate(15.209 2.051)" fill="#fff"/>
    <circle id="Ellipse_64" data-name="Ellipse 64" cx="5.034" cy="5.034" r="5.034" transform="translate(15.209 2.051)" fill="#356cb6" opacity="0.1"/>
    <path id="Path_2511" data-name="Path 2511" d="M43.9,19.4h0A10.233,10.233,0,0,1,54.136,29.633v1.5a6.9,6.9,0,0,1-6.9,6.9h-6.66a6.9,6.9,0,0,1-6.9-6.9v-1.5A10.233,10.233,0,0,1,43.9,19.4Z" transform="translate(-23.66 -14.204)" fill="#fff"/>
    <ellipse id="Ellipse_65" data-name="Ellipse 65" cx="2.131" cy="2.664" rx="2.131" ry="2.664" transform="translate(25.57 18.112)" fill="#fbc0aa"/>
    <path id="Path_2512" data-name="Path 2512" d="M41.007,105.447a20.142,20.142,0,0,0,11.707-3.735L51.591,98.24A3.374,3.374,0,0,0,48.43,96H33.6a3.374,3.374,0,0,0-3.178,2.241L29.3,101.712A20.142,20.142,0,0,0,41.007,105.447Z" transform="translate(-20.764 -64.961)" fill="#00adfe"/>
    <path id="Path_2513" data-name="Path 2513" d="M46.54,104.573a20.294,20.294,0,0,0,11.781,0L57.491,96H47.37Z" transform="translate(-32.188 -64.961)" fill="#356cb6"/>
    <ellipse id="Ellipse_66" data-name="Ellipse 66" cx="0.533" cy="1.598" rx="0.533" ry="1.598" transform="translate(17.047 29.832)" fill="#fff"/>
    <circle id="Ellipse_67" data-name="Ellipse 67" cx="1.065" cy="1.065" r="1.065" transform="translate(17.047 31.963)" fill="#fff"/>
    <ellipse id="Ellipse_68" data-name="Ellipse 68" cx="0.533" cy="1.598" rx="0.533" ry="1.598" transform="translate(22.374 29.832)" fill="#fff"/>
    <circle id="Ellipse_69" data-name="Ellipse 69" cx="1.065" cy="1.065" r="1.065" transform="translate(21.308 31.963)" fill="#fff"/>
    <circle id="Ellipse_70" data-name="Ellipse 70" cx="1.065" cy="1.065" r="1.065" transform="translate(18.112 33.028)" fill="#fff"/>
    <circle id="Ellipse_71" data-name="Ellipse 71" cx="1.065" cy="1.065" r="1.065" transform="translate(19.178 34.093)" fill="#fff"/>
    <circle id="Ellipse_72" data-name="Ellipse 72" cx="1.065" cy="1.065" r="1.065" transform="translate(20.243 33.028)" fill="#fff"/>
    <line id="Line_44" data-name="Line 44" y2="4.262" transform="translate(20.243 27.701)" fill="none" stroke="#fbc0aa" stroke-linecap="round" stroke-linejoin="round" stroke-width="14"/>
    <circle id="Ellipse_73" data-name="Ellipse 73" cx="2.664" cy="2.664" r="2.664" transform="translate(9.589 18.112)" fill="#fbc0aa"/>
    <path id="Path_2514" data-name="Path 2514" d="M47.435,50.949A8.435,8.435,0,0,1,39,42.515v-5.56a8.435,8.435,0,0,1,16.869,0v5.56A8.435,8.435,0,0,1,47.435,50.949Z" transform="translate(-27.192 -20.247)" fill="#ffd8c9"/>
    <path id="Path_2515" data-name="Path 2515" d="M55.059,33.419v-.58a9.376,9.376,0,0,0-8.995-9.447,9.281,9.281,0,0,0-9.555,9.251v-.081a.675.675,0,0,0,.675.675h3.33a3.3,3.3,0,0,0,2.814-1.576h0a4.659,4.659,0,0,0,2.837,2.277,3.374,3.374,0,0,0,1.012.155h7.193a.675.675,0,0,0,.688-.675Z" transform="translate(-25.542 -16.847)" fill="#fff"/>
    <path id="Path_2516" data-name="Path 2516" d="M55.059,33.419v-.58a9.376,9.376,0,0,0-8.995-9.447,9.281,9.281,0,0,0-9.555,9.251v-.081a.675.675,0,0,0,.675.675h3.33a3.3,3.3,0,0,0,2.814-1.576h0a4.659,4.659,0,0,0,2.837,2.277,3.374,3.374,0,0,0,1.012.155h7.193a.675.675,0,0,0,.688-.675Z" transform="translate(-25.542 -16.847)" fill="#356cb6" opacity="0.1"/>
    <path id="Path_2517" data-name="Path 2517" d="M63,43a3.292,3.292,0,0,0,3.239,2.055h4.049" transform="translate(-43.094 -29.842)" fill="none" stroke="#fff" stroke-linecap="round" stroke-miterlimit="10" stroke-width="2"/>
    <line id="Line_45" data-name="Line 45" y2="2.193" transform="translate(20.243 22.183)" fill="none" stroke="#fbc0aa" stroke-linecap="round" stroke-linejoin="round" stroke-width="5"/>
    <line id="Line_46" data-name="Line 46" x1="3.121" transform="translate(13.623 17.881)" fill="none" stroke="#515570" stroke-linecap="round" stroke-linejoin="round" stroke-width="2" opacity="0.2"/>
    <line id="Line_47" data-name="Line 47" x1="3.121" transform="translate(23.745 17.881)" fill="none" stroke="#515570" stroke-linecap="round" stroke-linejoin="round" stroke-width="2" opacity="0.2"/>
    <path id="Path_2518" data-name="Path 2518" d="M59.362,84.012A2.819,2.819,0,0,0,61.723,83H57A2.819,2.819,0,0,0,59.362,84.012Z" transform="translate(-39.119 -56.347)" fill="#f85565"/>
    <line id="Line_48" data-name="Line 48" x2="1.065" transform="translate(23.439 21.308)" fill="none" stroke="#515570" stroke-linecap="round" stroke-linejoin="round" stroke-width="2.33" opacity="0.7"/>
    <line id="Line_49" data-name="Line 49" x2="1.065" transform="translate(15.981 21.308)" fill="none" stroke="#515570" stroke-linecap="round" stroke-linejoin="round" stroke-width="2.33" opacity="0.7"/>
    <ellipse id="Ellipse_74" data-name="Ellipse 74" cx="2.131" cy="2.664" rx="2.131" ry="2.664" transform="translate(13.85 18.112)" fill="#00adfe" opacity="0.2"/>
    <ellipse id="Ellipse_75" data-name="Ellipse 75" cx="2.131" cy="2.664" rx="2.131" ry="2.664" transform="translate(13.85 18.112)" fill="none" stroke="#515570" stroke-linecap="round" stroke-linejoin="round" stroke-width="2.33"/>
    <ellipse id="Ellipse_76" data-name="Ellipse 76" cx="2.131" cy="2.664" rx="2.131" ry="2.664" transform="translate(22.374 18.112)" fill="#00adfe" opacity="0.2"/>
    <ellipse id="Ellipse_77" data-name="Ellipse 77" cx="2.131" cy="2.664" rx="2.131" ry="2.664" transform="translate(22.374 18.112)" fill="none" stroke="#515570" stroke-linecap="round" stroke-linejoin="round" stroke-width="2.33"/>
    <line id="Line_50" data-name="Line 50" x2="4.262" transform="translate(18.112 20.243)" fill="none" stroke="#515570" stroke-linecap="round" stroke-linejoin="round" stroke-width="2.33"/>
    <line id="Line_51" data-name="Line 51" y1="2.131" x2="1.065" transform="translate(17.047 24.505)" fill="none" stroke="#515570" stroke-linecap="round" stroke-linejoin="round" stroke-width="2" opacity="0.1"/>
    <line id="Line_52" data-name="Line 52" x1="1.065" y1="2.131" transform="translate(22.374 24.505)" fill="none" stroke="#515570" stroke-linecap="round" stroke-linejoin="round" stroke-width="2" opacity="0.1"/>
  </g>
</svg>
