<svg xmlns="http://www.w3.org/2000/svg" width="15.292" height="15.292" viewBox="0 0 15.292 15.292">
  <path id="Path_3758" data-name="Path 3758" d="M7.885,11.5A1.912,1.912,0,0,1,9.8,13.407v2.974a1.912,1.912,0,0,1-1.912,1.912H4.912A1.912,1.912,0,0,1,3,16.381V13.407A1.912,1.912,0,0,1,4.912,11.5Zm8.5,0a1.912,1.912,0,0,1,1.912,1.912v2.974a1.912,1.912,0,0,1-1.912,1.912H13.407A1.912,1.912,0,0,1,11.5,16.381V13.407A1.912,1.912,0,0,1,13.407,11.5Zm-8.5,1.274H4.912a.637.637,0,0,0-.637.637v2.974a.637.637,0,0,0,.637.637H7.885a.637.637,0,0,0,.637-.637V13.407A.637.637,0,0,0,7.885,12.77Zm8.5,0H13.407a.637.637,0,0,0-.637.637v2.974a.637.637,0,0,0,.637.637h2.974a.637.637,0,0,0,.637-.637V13.407A.637.637,0,0,0,16.381,12.77ZM7.885,3A1.912,1.912,0,0,1,9.8,4.912V7.885A1.912,1.912,0,0,1,7.885,9.8H4.912A1.912,1.912,0,0,1,3,7.885V4.912A1.912,1.912,0,0,1,4.912,3Zm8.5,0a1.912,1.912,0,0,1,1.912,1.912V7.885A1.912,1.912,0,0,1,16.381,9.8H13.407A1.912,1.912,0,0,1,11.5,7.885V4.912A1.912,1.912,0,0,1,13.407,3Zm-8.5,1.274H4.912a.637.637,0,0,0-.637.637V7.885a.637.637,0,0,0,.637.637H7.885a.637.637,0,0,0,.637-.637V4.912A.637.637,0,0,0,7.885,4.274Zm8.5,0H13.407a.637.637,0,0,0-.637.637V7.885a.637.637,0,0,0,.637.637h2.974a.637.637,0,0,0,.637-.637V4.912A.637.637,0,0,0,16.381,4.274Z" transform="translate(-3 -3)"/>
</svg>
