<svg id="Group_4304" data-name="Group 4304" xmlns="http://www.w3.org/2000/svg" width="40.441" height="25.13" viewBox="0 0 40.441 25.13">
  <g id="Group_4302" data-name="Group 4302" transform="translate(0 0)">
    <path id="Path_3727" data-name="Path 3727" d="M38.925,98.593a1.987,1.987,0,0,1,1.985,1.985v20.371a1.987,1.987,0,0,1-1.985,1.985H3.244a1.987,1.987,0,0,1-1.985-1.985V100.578a1.987,1.987,0,0,1,1.985-1.985H38.925m0-.395H3.244a2.38,2.38,0,0,0-2.38,2.38v20.371a2.38,2.38,0,0,0,2.38,2.38H38.925a2.38,2.38,0,0,0,2.38-2.38V100.578a2.38,2.38,0,0,0-2.38-2.38Z" transform="translate(-0.864 -98.198)" fill="#e30613"/>
  </g>
  <g id="Group_4303" data-name="Group 4303" transform="translate(3.302 2.517)">
    <path id="Path_3728" data-name="Path 3728" d="M218.516,147.844a10.025,10.025,0,0,0,6.8,2.648,10.215,10.215,0,0,0,0-20.429,10.025,10.025,0,0,0-6.8,2.648,10.222,10.222,0,0,0,0,15.133Z" transform="translate(-201.542 -130.063)" fill="#fab31e" fill-rule="evenodd"/>
    <path id="Path_3729" data-name="Path 3729" d="M62.927,139.2c-.035-.368-.105-.719-.176-1.087H56.544a10.632,10.632,0,0,1,.28-1.07h5.629c-.123-.368-.263-.736-.421-1.087h-4.77c.175-.368.368-.736.579-1.087h3.595a9.175,9.175,0,0,0-.772-1.07H58.613a10.137,10.137,0,0,1,1.035-1.087,10.215,10.215,0,1,0,0,15.133h0a9.779,9.779,0,0,0,1.017-1.07H58.613a12.093,12.093,0,0,1-.771-1.087h3.595a8.137,8.137,0,0,0,.6-1.087h-4.77a11.358,11.358,0,0,1-.439-1.07h5.629a11.028,11.028,0,0,0,.3-1.087,9.793,9.793,0,0,0,.228-2.157c0-.368-.018-.736-.053-1.087Z" transform="translate(-42.673 -130.065)" fill="#e40520" fill-rule="evenodd"/>
    <path id="Path_3730" data-name="Path 3730" d="M455.15,285.577a.318.318,0,0,1,.316-.333.322.322,0,0,1,.333.333.324.324,0,1,1-.649,0Zm.316.245a.246.246,0,1,0,0-.491.245.245,0,1,0,0,.491Zm-.035-.105h-.07v-.281h.193c.035.018.035.053.035.088a.094.094,0,0,1-.053.07l.07.123h-.088l-.035-.105h-.053v-.052h.035c.018,0,.035,0,.035-.018.017,0,.017-.017.017-.035a.017.017,0,0,0-.017-.017c0-.018-.018,0-.035,0h-.035v.228Z" transform="translate(-422.569 -272.986)" fill="#fff" fill-rule="evenodd"/>
    <path id="Path_3731" data-name="Path 3731" d="M194.411,240.965a3.238,3.238,0,0,1-.824.14c-.526,0-.842-.333-.842-.929a3.154,3.154,0,0,1,.035-.386l.07-.4.053-.333.473-2.876h1.052l-.123.631h.667l-.158,1.052h-.666l-.281,1.718a.8.8,0,0,0-.018.175c0,.228.105.316.368.316a1.917,1.917,0,0,0,.333-.035l-.14.93Z" transform="translate(-180.891 -227.796)" fill="#06326e" fill-rule="evenodd"/>
    <path id="Path_3732" data-name="Path 3732" d="M221.942,247.065a4.127,4.127,0,0,1-1.122.158,1.685,1.685,0,0,1-1.876-1.876c0-1.455.807-2.507,1.929-2.507a1.4,1.4,0,0,1,1.473,1.526,4.826,4.826,0,0,1-.123,1.035H220.03a.49.49,0,0,0-.018.14c0,.491.333.736.965.736a2.64,2.64,0,0,0,1.14-.263l-.175,1.052Zm-.649-2.508v-.21a.485.485,0,0,0-.526-.544c-.351,0-.6.263-.7.754Z" transform="translate(-205.02 -233.931)" fill="#06326e" fill-rule="evenodd"/>
    <path id="Path_3733" data-name="Path 3733" d="M55.342,237.134H54.255l.631-3.981-1.42,3.981h-.754l-.088-3.963-.666,3.963h-1.07l.859-5.173h1.6l.035,3.191,1.07-3.191H56.2Z" transform="translate(-50.239 -223.912)" fill="#06326e" fill-rule="evenodd"/>
    <path id="Path_3734" data-name="Path 3734" d="M115.24,245.276a1.02,1.02,0,0,0-.21-.017c-.631,0-.947.245-.947.631a.4.4,0,0,0,.4.439c.526,0,.737-.439.754-1.053Zm.877,1.876h-.947l.018-.438a1.285,1.285,0,0,1-1.157.508,1.063,1.063,0,0,1-.982-1.157,1.87,1.87,0,0,1,.088-.544c.175-.649.824-1.052,1.824-1.069.123,0,.315,0,.491.017a.926.926,0,0,0,.035-.281c0-.281-.228-.368-.737-.368a2.921,2.921,0,0,0-.912.14l-.158.035-.07.017.158-.947a4.125,4.125,0,0,1,1.28-.228c.947,0,1.455.438,1.455,1.245a3.98,3.98,0,0,1-.053.824l-.245,1.508-.035.263-.018.211-.018.14-.018.122Z" transform="translate(-107.489 -233.931)" fill="#06326e" fill-rule="evenodd"/>
    <path id="Path_3735" data-name="Path 3735" d="M266.29,231.529a2.1,2.1,0,0,1,.982.281l.193-1.122a2.392,2.392,0,0,0-.281-.105l-.438-.123a3.114,3.114,0,0,0-1.7.158,3.287,3.287,0,0,0-.649.561l-.14-.035-1.122.789.053-.438h-1.157l-.684,4.208h1.1l.4-2.262s.158-.316.228-.421a.639.639,0,0,1,.614-.263h.088a5.629,5.629,0,0,0-.053.807,1.967,1.967,0,0,0,1.964,2.227,3.545,3.545,0,0,0,.964-.14l.193-1.192a1.983,1.983,0,0,1-.929.281c-.649,0-1.034-.491-1.034-1.263,0-1.14.579-1.946,1.4-1.946Z" transform="translate(-244.072 -222.481)" fill="#06326e" fill-rule="evenodd"/>
    <path id="Path_3736" data-name="Path 3736" d="M381.515,231.96l-.245,1.473a1.135,1.135,0,0,0-1-.6,1.654,1.654,0,0,0-1.456.965v-.018l-.7-.421.07-.438h-1.175l-.666,4.208h1.087l.368-2.262s.281-.316.351-.421a.685.685,0,0,1,.491-.263,3.789,3.789,0,0,0-.193,1.245c0,1.052.544,1.754,1.35,1.754a1.274,1.274,0,0,0,1.017-.474l-.053.421H381.8l.842-5.173h-1.122Zm-1.35,4.174c-.368,0-.561-.281-.561-.824,0-.824.35-1.42.859-1.42.386,0,.579.3.579.824,0,.842-.351,1.42-.877,1.42Z" transform="translate(-349.986 -223.911)" fill="#06326e" fill-rule="evenodd"/>
    <path id="Path_3737" data-name="Path 3737" d="M334.611,245.276a1.02,1.02,0,0,0-.21-.017c-.631,0-.947.245-.947.631a.4.4,0,0,0,.4.439c.526,0,.737-.439.754-1.053Zm.877,1.876h-.964l.035-.438a1.285,1.285,0,0,1-1.157.508,1.067,1.067,0,0,1-1.017-1.157c0-1,.754-1.613,1.947-1.613a4.645,4.645,0,0,1,.473.017,1.076,1.076,0,0,0,.053-.281c0-.281-.228-.368-.754-.368a3,3,0,0,0-.912.14l-.14.035-.07.017.158-.947a4.124,4.124,0,0,1,1.28-.228c.947,0,1.438.438,1.438,1.245a3.021,3.021,0,0,1-.053.824l-.228,1.508-.035.263-.035.211-.018.14v.122Z" transform="translate(-309.5 -233.931)" fill="#06326e" fill-rule="evenodd"/>
    <path id="Path_3738" data-name="Path 3738" d="M156.853,243.838a5.229,5.229,0,0,1,.824.07l.158-.982c-.316-.035-.737-.088-.982-.088-1.227,0-1.631.667-1.631,1.438a1.2,1.2,0,0,0,.824,1.157c.438.21.509.245.509.439,0,.263-.228.421-.649.421a2.938,2.938,0,0,1-1-.175l-.123.964.018.018.21.035a2.763,2.763,0,0,0,.281.052c.263.018.491.035.631.035,1.228,0,1.736-.473,1.736-1.4a1.2,1.2,0,0,0-.824-1.175c-.473-.21-.526-.245-.526-.438s.21-.368.544-.368Z" transform="translate(-145.928 -233.931)" fill="#06326e" fill-rule="evenodd"/>
    <path id="Path_3739" data-name="Path 3739" d="M299.455,226.676l-.193,1.122a2.109,2.109,0,0,0-.982-.281c-.824,0-1.4.807-1.4,1.947,0,.789.386,1.262,1.035,1.262a2.146,2.146,0,0,0,.929-.263l-.193,1.175a3.651,3.651,0,0,1-.964.158c-1.192,0-1.929-.859-1.929-2.245,0-1.841,1.017-3.139,2.473-3.139a2.162,2.162,0,0,1,.509.053l.438.105c.14.053.175.07.281.105Z" transform="translate(-275.764 -218.802)" fill="#fff" fill-rule="evenodd"/>
    <path id="Path_3740" data-name="Path 3740" d="M267.493,239.509h-.105c-.368,0-.579.175-.912.684l.105-.649h-1l-.684,4.209H266c.4-2.578.509-3.016,1.035-3.016h.07a4.406,4.406,0,0,1,.421-1.21l-.035-.017Z" transform="translate(-247.345 -230.864)" fill="#fff" fill-rule="evenodd"/>
    <path id="Path_3741" data-name="Path 3741" d="M197.964,236.747a2.274,2.274,0,0,1-.789.14.811.811,0,0,1-.877-.929,2.888,2.888,0,0,1,.035-.368l.07-.421.053-.333.474-2.876h1.087l-.123.631h.561l-.14,1.035h-.561l-.3,1.753a.653.653,0,0,0-.018.175c0,.21.105.3.368.3a.732.732,0,0,0,.3-.035l-.141.929Z" transform="translate(-184.163 -223.911)" fill="#fff" fill-rule="evenodd"/>
    <path id="Path_3742" data-name="Path 3742" d="M158.978,240.261a1.228,1.228,0,0,0,.824,1.175c.456.21.526.28.526.456,0,.263-.193.386-.631.386a3.281,3.281,0,0,1-.982-.158l-.158.964.053.018.193.035a1.156,1.156,0,0,0,.3.035,4.062,4.062,0,0,0,.6.035c1.157,0,1.7-.438,1.7-1.4a1.166,1.166,0,0,0-.772-1.175c-.473-.21-.526-.263-.526-.456,0-.228.193-.333.544-.333a6.847,6.847,0,0,1,.789.053l.158-.965a6.354,6.354,0,0,0-.964-.088c-1.228,0-1.666.649-1.648,1.42Z" transform="translate(-149.403 -230.249)" fill="#fff" fill-rule="evenodd"/>
    <path id="Path_3743" data-name="Path 3743" d="M410.086,232.914h-1.035l.052-.4a1.312,1.312,0,0,1-1.017.456c-.807,0-1.333-.684-1.333-1.736,0-1.4.824-2.6,1.789-2.6a1.259,1.259,0,0,1,1.052.579l.245-1.473h1.087l-.842,5.173Zm-1.613-.982c.508,0,.859-.6.859-1.42,0-.544-.193-.824-.579-.824-.491,0-.859.579-.859,1.4q0,.842.579.842Z" transform="translate(-377.996 -220.026)" fill="#fff" fill-rule="evenodd"/>
    <path id="Path_3744" data-name="Path 3744" d="M225.05,242.846a3.588,3.588,0,0,1-1.14.175,1.67,1.67,0,0,1-1.859-1.894c0-1.438.807-2.508,1.912-2.508a1.409,1.409,0,0,1,1.49,1.526,4.247,4.247,0,0,1-.14,1.052h-2.174a.34.34,0,0,0-.018.122c0,.491.333.737.964.737a2.411,2.411,0,0,0,1.14-.263l-.175,1.052Zm-.614-2.508v-.21a.485.485,0,0,0-.526-.543c-.351,0-.6.263-.7.754Z" transform="translate(-207.882 -230.045)" fill="#fff" fill-rule="evenodd"/>
    <path id="Path_3745" data-name="Path 3745" d="M59.507,232.914H58.42l.631-3.981-1.42,3.981h-.754l-.088-3.946-.666,3.946H55.106l.859-5.173h1.578l.053,3.209,1.052-3.209h1.719Z" transform="translate(-54.124 -220.026)" fill="#fff" fill-rule="evenodd"/>
    <path id="Path_3746" data-name="Path 3746" d="M119.067,241.261c-.105,0-.158-.018-.245-.018-.614,0-.929.228-.929.649a.37.37,0,0,0,.386.421c.456,0,.772-.421.789-1.052Zm.807,1.876h-.912l.018-.439a1.366,1.366,0,0,1-1.157.509,1.019,1.019,0,0,1-1-1.14c0-1.035.7-1.631,1.929-1.631.123,0,.281.018.456.035a.884.884,0,0,0,.035-.263c0-.281-.193-.386-.7-.386a3.619,3.619,0,0,0-.912.105l-.158.052-.105.018.158-.947a4.411,4.411,0,0,1,1.315-.211c.947,0,1.455.421,1.455,1.228a5.313,5.313,0,0,1-.088.842l-.246,1.491-.035.263-.018.21-.017.158-.018.105Z" transform="translate(-110.966 -230.249)" fill="#fff" fill-rule="evenodd"/>
    <path id="Path_3747" data-name="Path 3747" d="M338.849,241.261c-.123,0-.175-.018-.245-.018-.631,0-.947.228-.947.649a.382.382,0,0,0,.4.421c.438,0,.771-.421.789-1.052Zm.806,1.876h-.912l.018-.439a1.366,1.366,0,0,1-1.157.509,1.019,1.019,0,0,1-1-1.14c0-1.035.7-1.631,1.929-1.631.123,0,.281.018.438.035a1.114,1.114,0,0,0,.053-.263c0-.281-.193-.386-.7-.386a3.766,3.766,0,0,0-.929.105l-.14.052-.105.018.158-.947a4.41,4.41,0,0,1,1.315-.211c.947,0,1.438.421,1.438,1.228a3.757,3.757,0,0,1-.088.842l-.228,1.491-.035.263-.035.21-.018.158v.105Z" transform="translate(-313.388 -230.249)" fill="#fff" fill-rule="evenodd"/>
    <path id="Path_3748" data-name="Path 3748" d="M382.47,239.509h-.105c-.368,0-.579.175-.912.684l.105-.649h-1l-.666,4.209h1.087c.4-2.578.509-3.016,1.035-3.016h.07a4.408,4.408,0,0,1,.421-1.21l-.035-.017Z" transform="translate(-353.255 -230.864)" fill="#fff" fill-rule="evenodd"/>
  </g>
</svg>
