<svg xmlns="http://www.w3.org/2000/svg" width="29.472" height="18.26" viewBox="0 0 29.472 18.26">
  <g id="g3125" transform="translate(-67.083 -46.545)">
    <g id="g3115" transform="translate(67.083 46.545)">
      <g id="g3110" transform="translate(0 0)">
        <path id="path2997" d="M300.775,55.675a9.111,9.111,0,1,0-9.118,9.13,9.12,9.12,0,0,0,9.118-9.13Z" transform="translate(-271.303 -46.545)" fill="#f79f1a"/>
        <path id="path2995" d="M85.306,55.675a9.111,9.111,0,1,0-9.111,9.13,9.12,9.12,0,0,0,9.111-9.13Z" transform="translate(-67.083 -46.545)" fill="#ea001b"/>
        <path id="path2999" d="M285.921,98.11a9.149,9.149,0,0,1,0-14.377,9.149,9.149,0,0,1,0,14.377Z" transform="translate(-271.188 -81.791)" fill="#ff5f01"/>
      </g>
      <g id="g3043" transform="translate(28.748 4.282)">
        <g id="text3045" transform="translate(0 0)">
          <path id="path3057" d="M1.628,15.439v.322H1.547l-.1-.226-.1.234H1.265v-.322h.056v.242l.089-.21h.064l.1.21v-.25Zm-.54,0v.274H1.2v.056H.926v-.056h.113v-.274Z" transform="translate(-0.926 -15.439)" fill="#f79f1a"/>
        </g>
      </g>
    </g>
  </g>
</svg>
