<svg xmlns="http://www.w3.org/2000/svg" width="101.741" height="52.538" viewBox="0 0 101.741 52.538">
  <g id="Group_2535" data-name="Group 2535" transform="translate(-138 -2360.156)">
    <g id="Group_2534" data-name="Group 2534" transform="translate(-0.188)">
      <path id="Path_2366" data-name="Path 2366" d="M87.128,78.739a8.963,8.963,0,0,1,2.721.36,3.787,3.787,0,0,1,1.807,1.191,5.205,5.205,0,0,1,1,2.238,19.841,19.841,0,0,1,0,6.962,5.205,5.205,0,0,1-1,2.238,3.786,3.786,0,0,1-1.807,1.191,8.962,8.962,0,0,1-2.721.36c-1.068,0-1.979-.017-2.855-.05s-1.7-.078-2.485-.134l1.068-1.972c.548.028,1.177.05,1.89.071s1.506.031,2.382.031a3.336,3.336,0,0,0,1.879-.462,2.591,2.591,0,0,0,.975-1.6,17.465,17.465,0,0,0,0-6.3,2.638,2.638,0,0,0-.975-1.612,3.278,3.278,0,0,0-1.879-.473q-1.273,0-2.269.021t-1.94.021l-1.13-1.89q1.171-.081,2.474-.134t2.865-.052Zm-2.772.184V93.092H81.79V78.924Z" transform="translate(95.589 2315.415)" fill="#006fac"/>
      <path id="Path_2367" data-name="Path 2367" d="M98.187,82.228a7.075,7.075,0,0,1,2.947.513,3.082,3.082,0,0,1,1.581,1.683,10.153,10.153,0,0,1,0,6.191,3.117,3.117,0,0,1-1.581,1.683,6.921,6.921,0,0,1-2.947.523,6.717,6.717,0,0,1-2.905-.523,3.174,3.174,0,0,1-1.591-1.683,9.983,9.983,0,0,1,0-6.191,3.12,3.12,0,0,1,1.591-1.683A6.921,6.921,0,0,1,98.187,82.228Zm0,1.89a2.9,2.9,0,0,0-1.428.3,1.686,1.686,0,0,0-.749,1.036,9.635,9.635,0,0,0,0,4.148,1.658,1.658,0,0,0,.749,1.028,2.986,2.986,0,0,0,1.428.287,3.143,3.143,0,0,0,1.459-.287A1.6,1.6,0,0,0,100.4,89.6a10.089,10.089,0,0,0,0-4.148,1.642,1.642,0,0,0-.749-1.036A3.011,3.011,0,0,0,98.187,84.117Z" transform="translate(97.344 2315.952)" fill="#006fac"/>
      <path id="Path_2368" data-name="Path 2368" d="M108.4,82.228c.343,0,.719.014,1.131.042a10.305,10.305,0,0,1,1.252.164,5.35,5.35,0,0,1,1.149.349l-.287,1.561c-.505-.028-1.01-.049-1.509-.061s-.933-.021-1.3-.021a4.052,4.052,0,0,0-1.653.276,1.663,1.663,0,0,0-.872.986,7.442,7.442,0,0,0,0,3.964,1.7,1.7,0,0,0,.872,1,3.923,3.923,0,0,0,1.653.287c.205,0,.474-.007.812-.021s.7-.035,1.088-.061.771-.061,1.139-.1l.247,1.6a7.567,7.567,0,0,1-1.787.473,13.536,13.536,0,0,1-1.951.144,6.878,6.878,0,0,1-2.895-.513,3.1,3.1,0,0,1-1.572-1.674,8.25,8.25,0,0,1-.483-3.111,8.118,8.118,0,0,1,.493-3.111,3.087,3.087,0,0,1,1.58-1.664,6.978,6.978,0,0,1,2.895-.5Z" transform="translate(98.918 2315.952)" fill="#006fac"/>
      <path id="Path_2369" data-name="Path 2369" d="M119.136,82.825V84.55h-7.269V82.927l1.972-.1Zm-3-2.876v9.919a1.229,1.229,0,0,0,.276.894,1.327,1.327,0,0,0,.954.276h1.4l.269,1.746a6.906,6.906,0,0,1-.842.184c-.329.054-.65.092-.965.113s-.583.031-.8.031a2.81,2.81,0,0,1-2.042-.708,2.716,2.716,0,0,1-.729-2.043V79.951h2.485Z" transform="translate(100.216 2315.602)" fill="#006fac"/>
      <path id="Path_2370" data-name="Path 2370" d="M124.42,82.228a7.076,7.076,0,0,1,2.948.513,3.084,3.084,0,0,1,1.58,1.683,10.153,10.153,0,0,1,0,6.191,3.119,3.119,0,0,1-1.58,1.683,6.926,6.926,0,0,1-2.948.523,6.721,6.721,0,0,1-2.905-.523,3.17,3.17,0,0,1-1.59-1.683,8.032,8.032,0,0,1-.493-3.091,8.121,8.121,0,0,1,.493-3.1,3.117,3.117,0,0,1,1.59-1.683A6.925,6.925,0,0,1,124.42,82.228Zm0,1.89a2.9,2.9,0,0,0-1.427.3,1.682,1.682,0,0,0-.749,1.036,9.626,9.626,0,0,0,0,4.148,1.657,1.657,0,0,0,.749,1.028,2.985,2.985,0,0,0,1.427.287,3.147,3.147,0,0,0,1.46-.287,1.6,1.6,0,0,0,.749-1.028,10.076,10.076,0,0,0,0-4.148,1.641,1.641,0,0,0-.749-1.036A3.015,3.015,0,0,0,124.42,84.117Z" transform="translate(101.38 2315.952)" fill="#006fac"/>
      <path id="Path_2371" data-name="Path 2371" d="M131.985,82.474l.329,1.972.225.287v7.824h-2.484V82.474Zm4.929-.247-.247,2.3h-.719a5.19,5.19,0,0,0-1.621.268q-.822.266-2.054.8l-.165-1.459a9.421,9.421,0,0,1,2.176-1.407,5.156,5.156,0,0,1,2.136-.5h.492Z" transform="translate(103.014 2315.952)" fill="#006fac"/>
      <path id="Path_2372" data-name="Path 2372" d="M53.634,78.686q.965,0,1.643.052c.452.035.869.082,1.252.144a11.846,11.846,0,0,1,1.191.257l-.226,1.909q-.636-.042-1.191-.071c-.37-.019-.763-.038-1.181-.05s-.915-.021-1.488-.021a3.228,3.228,0,0,0-1.869.473,2.6,2.6,0,0,0-.955,1.581,17.074,17.074,0,0,0,0,6.12,2.6,2.6,0,0,0,.955,1.58,3.227,3.227,0,0,0,1.869.473q1.374,0,2.311-.052c.622-.035,1.234-.085,1.838-.155l.226,1.89a10.994,10.994,0,0,1-1.909.41,20.512,20.512,0,0,1-2.464.123,7.035,7.035,0,0,1-3.41-.708,4.057,4.057,0,0,1-1.838-2.311,13.313,13.313,0,0,1-.565-4.312,13.314,13.314,0,0,1,.565-4.312A4.064,4.064,0,0,1,50.227,79.4a7.008,7.008,0,0,1,3.41-.709Z" transform="translate(90.364 2315.407)" fill="#006fac"/>
      <path id="Path_2373" data-name="Path 2373" d="M60.243,78.65a.654.654,0,0,1,.739.739v1.149a.654.654,0,0,1-.739.739H59.134a.654.654,0,0,1-.739-.739V79.389a.654.654,0,0,1,.739-.739Zm.678,4.375V93.107H58.457V83.025Z" transform="translate(91.99 2315.401)" fill="#006fac"/>
      <path id="Path_2374" data-name="Path 2374" d="M69.544,82.825V84.55H62.274V82.927l1.972-.1Zm-3-2.876v9.919a1.231,1.231,0,0,0,.276.894,1.326,1.326,0,0,0,.955.276h1.4l.268,1.746a6.9,6.9,0,0,1-.842.184q-.493.081-.965.113c-.315.021-.582.031-.8.031A2.811,2.811,0,0,1,64.79,92.4a2.716,2.716,0,0,1-.729-2.043V79.951h2.485Z" transform="translate(92.587 2315.602)" fill="#006fac"/>
      <path id="Path_2375" data-name="Path 2375" d="M71.865,82.442,74.1,89.383c.068.233.13.47.184.709s.1.476.144.708h.513l-.781,1.725h-.657a.838.838,0,0,1-.513-.165.806.806,0,0,1-.308-.452l-3.47-9.467h2.65Zm8.132,0-3.778,10.39a9.865,9.865,0,0,1-.668,1.428,5.317,5.317,0,0,1-1.017,1.283,4.531,4.531,0,0,1-1.459.9,4.439,4.439,0,0,1-1.951.247l-.205-1.478a5,5,0,0,0,1.92-.944,4.062,4.062,0,0,0,1.078-1.52l.555-1.314q.185-.451.36-1.036t.3-1.017l2.2-6.941H80Z" transform="translate(93.655 2315.984)" fill="#006fac"/>
    </g>
    <g id="Group_2533" data-name="Group 2533" transform="translate(50.482 -21.729)">
      <path id="Path_3061" data-name="Path 3061" d="M30.25,79.795l8.893-8.914a6.506,6.506,0,1,1,9.191,9.212L39.439,89a4.245,4.245,0,0,1-6.012,0l-3.175-3.182a4.268,4.268,0,0,1,0-6.026" transform="translate(105.469 2312.913)" fill="#38ada0"/>
      <path id="Path_3062" data-name="Path 3062" d="M19.68,76.6a6.488,6.488,0,0,1,9.191,0l8.89,8.911a4.268,4.268,0,0,1,0,6.026l-3.175,3.185a4.245,4.245,0,0,1-6.012,0L19.68,85.807A6.519,6.519,0,0,1,19.68,76.6Z" transform="translate(103.742 2313.792)" fill="#044570"/>
      <path id="Path_3063" data-name="Path 3063" d="M24.777,85.876a4.313,4.313,0,0,1-5.341-.057l2.7,2.705,1.043,1.047,5.141,5.15a4.245,4.245,0,0,0,6.012,0l8.89-8.914a6.506,6.506,0,1,0-9.191-9.212" transform="translate(103.997 2313.792)" fill="#006fac"/>
    </g>
  </g>
</svg>
