<svg xmlns="http://www.w3.org/2000/svg" xmlns:xlink="http://www.w3.org/1999/xlink" width="10.012" height="12.146" viewBox="0 0 10.012 12.146">
  <defs>
    <clipPath id="clip-path">
      <rect id="Rectangle_51" data-name="Rectangle 51" width="10.012" height="12.146" fill="#006fac"/>
    </clipPath>
  </defs>
  <g id="Group_46" data-name="Group 46" clip-path="url(#clip-path)">
    <path id="Path_37" data-name="Path 37" d="M5.014,12.146A5.011,5.011,0,0,1,.355,5.263,11.812,11.812,0,0,1,3.367,1.1c.3-.286.6-.562.922-.821A1.026,1.026,0,0,1,5.647.234,12.874,12.874,0,0,1,9.621,5.181a5.01,5.01,0,0,1-4.607,6.965M5.025,1.119A13.5,13.5,0,0,0,1.746,4.856a4.338,4.338,0,0,0-.591,3.027A3.929,3.929,0,0,0,6.043,10.9a3.881,3.881,0,0,0,2.65-5.052A11.678,11.678,0,0,0,5.025,1.119" transform="translate(0 0)" fill="#006fac"/>
    <path id="Path_39" data-name="Path 39" d="M79.627,108.236a1.248,1.248,0,0,1-.046.221,3.168,3.168,0,0,1-2.022,1.953.532.532,0,0,1-.7-.316.52.52,0,0,1,.317-.7,2.294,2.294,0,0,0,1.4-1.365.5.5,0,0,1,.635-.329.525.525,0,0,1,.415.534" transform="translate(-71.55 -100.292)" fill="#006fac"/>
  </g>
</svg>
