<svg xmlns="http://www.w3.org/2000/svg" width="74.299" height="30.645" viewBox="0 0 74.299 30.645">
  <g id="_384578_2_" data-name="384578 (2)" transform="translate(-24.9 -72.6)">
    <path id="Path_3718" data-name="Path 3718" d="M89.625,103.245H34.474A9.569,9.569,0,0,1,24.9,93.671v-11.5A9.569,9.569,0,0,1,34.474,72.6H89.625A9.569,9.569,0,0,1,99.2,82.174v11.5A9.569,9.569,0,0,1,89.625,103.245Z" transform="translate(0)" fill="#5afeae"/>
    <g id="Group_4259" data-name="Group 4259" transform="translate(30.947 78.83)">
      <path id="Path_3719" data-name="Path 3719" d="M94.982,89.819l-3.8,14.521v.046h2.977l3.8-14.521H94.982Zm-47,8.245a3.069,3.069,0,0,1-1.42.321c-1.054,0-1.649-.183-1.741-1.054V92.613h0v-2.7l-2.657.321a3.284,3.284,0,0,0,2.794-3.161V86.2H41.983v4.077l-.183.046v7.512a3.4,3.4,0,0,0,3.756,3.39,5.837,5.837,0,0,0,2.382-.5h0l.046-2.657Z" transform="translate(-40.105 -86.2)" fill="#292929"/>
      <path id="Path_3720" data-name="Path 3720" d="M46.437,89.757,38.1,91.039v2.107l8.337-1.283Zm0,3.115L38.1,94.154V96.17l8.337-1.283Zm9.345.962A3.693,3.693,0,0,0,51.8,90.077a4.021,4.021,0,0,0-3.3,1.557,8.214,8.214,0,0,0,0,8.52,3.985,3.985,0,0,0,3.3,1.512,3.668,3.668,0,0,0,3.985-3.756v3.527h2.977V90.352l-2.977.458v3.023Zm.183,2.061c0,2.061-1.1,3.436-2.794,3.436-1.741,0-2.794-1.283-2.794-3.436s1.054-3.436,2.794-3.436a2.541,2.541,0,0,1,2.061.962,4.07,4.07,0,0,1,.733,2.474Zm11.452-5.817a3.668,3.668,0,0,0-3.985,3.756V87.1l-2.977.458v13.879h2.977V97.91a3.668,3.668,0,0,0,3.985,3.756c2.794,0,4.489-2.153,4.489-5.772S70.211,90.077,67.416,90.077ZM66.088,99.33c-1.695,0-2.794-1.328-2.794-3.436a4.07,4.07,0,0,1,.733-2.474,2.48,2.48,0,0,1,2.061-.962c1.741,0,2.794,1.283,2.794,3.436s-1.054,3.436-2.794,3.436Zm13.879-9.253a3.668,3.668,0,0,0-3.985,3.756V87.1L73,87.558v13.879h2.977V97.91a3.668,3.668,0,0,0,3.985,3.756c2.794,0,4.489-2.153,4.489-5.772s-1.695-5.817-4.489-5.817ZM78.639,99.33c-1.695,0-2.794-1.328-2.794-3.436a4.07,4.07,0,0,1,.733-2.474,2.48,2.48,0,0,1,2.061-.962c1.741,0,2.794,1.283,2.794,3.436S80.38,99.33,78.639,99.33Zm5.817-9.024h3.161l2.565,11.131h-2.84Zm13.925,1.145v-.87h-.366V90.4h.962v.183h-.366v.87Zm.641,0v-1.1h.366l.183.5c.046.137.092.183.092.229,0-.046.046-.092.092-.229l.183-.5h.366v1.1h-.229v-.87l-.321.87h-.229l-.275-.87v.87Z" transform="translate(-38.1 -86.688)" fill="#292929"/>
    </g>
  </g>
</svg>
