<svg xmlns="http://www.w3.org/2000/svg" xmlns:xlink="http://www.w3.org/1999/xlink" width="45.514" height="16.994" viewBox="0 0 45.514 16.994">
  <defs>
    <clipPath id="clip-path">
      <rect id="Rectangle_1948" data-name="Rectangle 1948" width="45.514" height="16.994" transform="translate(0 -1)" fill="none"/>
    </clipPath>
  </defs>
  <g id="Group_4352" data-name="Group 4352" transform="translate(0 1)">
    <g id="Group_4351" data-name="Group 4351" transform="translate(0 0)" clip-path="url(#clip-path)">
      <path id="Path_3922" data-name="Path 3922" d="M40.831,16.993H4.684C2.1,16.995,0,14.62,0,11.689V5.309C0,2.378,2.094,0,4.68,0H40.831c2.585,0,4.682,2.373,4.683,5.3v6.38c0,2.931-2.094,5.308-4.68,5.309Z" transform="translate(0 -0.999)" fill="#64e0ce"/>
      <path id="Path_3923" data-name="Path 3923" d="M33.722,4.575l-1.86,7.105V11.7h1.456l1.86-7.1H33.722ZM10.727,8.61a1.494,1.494,0,0,1-.694.156c-.516,0-.807-.089-.852-.515V4.62l-1.3.158A1.61,1.61,0,0,0,9.248,3.23V2.805H7.791V4.8l-.09.022V8.5A1.664,1.664,0,0,0,9.54,10.156,2.833,2.833,0,0,0,10.7,9.908l.023-1.3Z" transform="translate(0.667 0.243)" fill="#1f1f1e"/>
      <path id="Path_3924" data-name="Path 3924" d="M11.018,4.292l-4.079.627V5.95l4.079-.627Zm0,1.523-4.079.628v.986L11.018,6.8Zm4.572.47a1.809,1.809,0,0,0-1.771-1.843c-.06,0-.12,0-.179.005a1.97,1.97,0,0,0-1.614.762,4.02,4.02,0,0,0,0,4.169,1.953,1.953,0,0,0,1.614.74,1.8,1.8,0,0,0,1.944-1.633,1.844,1.844,0,0,0,.007-.205v1.727h1.455V4.583l-1.457.224V6.286ZM15.68,7.3c0,1.008-.536,1.681-1.367,1.681-.852,0-1.367-.628-1.367-1.681s.515-1.681,1.367-1.681a1.243,1.243,0,0,1,1.008.472A1.992,1.992,0,0,1,15.68,7.3Zm5.6-2.847A1.8,1.8,0,0,0,19.339,6.08a1.622,1.622,0,0,0-.007.205V2.991l-1.457.224v6.791h1.457V8.281a1.8,1.8,0,0,0,1.744,1.844,1.632,1.632,0,0,0,.206-.007c1.367,0,2.2-1.053,2.2-2.824s-.829-2.846-2.2-2.846m-.65,4.528c-.829,0-1.367-.651-1.367-1.681a1.993,1.993,0,0,1,.359-1.21,1.212,1.212,0,0,1,1.008-.47C21.485,5.614,22,6.241,22,7.3s-.515,1.681-1.367,1.681m6.79-4.528A1.8,1.8,0,0,0,25.48,6.08a1.852,1.852,0,0,0-.005.205V2.991l-1.457.224v6.791h1.457V8.281a1.794,1.794,0,0,0,1.744,1.844,1.622,1.622,0,0,0,.205-.007c1.367,0,2.2-1.053,2.2-2.824S28.791,4.448,27.424,4.448Zm-.65,4.528c-.829,0-1.367-.651-1.367-1.681a1.986,1.986,0,0,1,.359-1.21,1.21,1.21,0,0,1,1.008-.47c.852,0,1.367.627,1.367,1.681s-.516,1.681-1.367,1.681M29.62,4.562h1.546l1.256,5.445h-1.39Zm6.813.559V4.695h-.179V4.6h.47v.09h-.179v.426Zm.314,0V4.584h.179l.09.248c.022.067.045.09.045.113,0-.023.022-.046.045-.113l.09-.248h.179v.537h-.112V4.695l-.158.426h-.112l-.135-.426v.426Z" transform="translate(0.601 0.259)" fill="#1f1f1e"/>
    </g>
  </g>
</svg>
