<svg xmlns="http://www.w3.org/2000/svg" width="14.343" height="16.549" viewBox="0 0 14.343 16.549">
  <path id="Path_3037" data-name="Path 3037" d="M60.516,19.539a3.768,3.768,0,0,1-.326-.19,4.581,4.581,0,0,1-.837-.711,3.946,3.946,0,0,1-.943-1.945h0A2.4,2.4,0,0,1,58.376,16H55.534V26.99c0,.148,0,.293-.006.437,0,.018,0,.034,0,.054a.119.119,0,0,1,0,.024v.006a2.413,2.413,0,0,1-1.214,1.915,2.372,2.372,0,0,1-1.176.31,2.413,2.413,0,0,1,0-4.826,2.375,2.375,0,0,1,.738.117l0-2.894a5.279,5.279,0,0,0-4.068,1.19,5.578,5.578,0,0,0-1.217,1.5,5.2,5.2,0,0,0-.627,2.387,5.634,5.634,0,0,0,.305,1.887v.007a5.555,5.555,0,0,0,.772,1.407,5.776,5.776,0,0,0,1.231,1.161v-.007l.007.007a5.318,5.318,0,0,0,2.9.874,5.136,5.136,0,0,0,2.153-.476,5.4,5.4,0,0,0,1.749-1.314,5.463,5.463,0,0,0,.953-1.583,5.931,5.931,0,0,0,.343-1.811v-5.83c.034.021.494.324.494.324a6.573,6.573,0,0,0,1.694.7A9.754,9.754,0,0,0,62.3,22.8V19.974A3.686,3.686,0,0,1,60.516,19.539Z" transform="translate(-47.959 -16)"/>
</svg>
