<svg id="Group_2452" data-name="Group 2452" xmlns="http://www.w3.org/2000/svg" width="36.117" height="12.813" viewBox="0 0 36.117 12.813">
  <path id="Path_2993" data-name="Path 2993" d="M77.838,182.086l-2.014,12.379h3.223l2.015-12.379Zm-4.726,0L70.04,190.6l-.363-1.833h0l-.08-.411a10.266,10.266,0,0,0-2.859-3.624,12.894,12.894,0,0,0-1.434-.992L68.1,194.464h3.358l5.127-12.379Zm12.577,3.437c0-1.4,3.139-1.22,4.518-.46l.46-2.659a9.3,9.3,0,0,0-2.9-.54c-1.6,0-5.4.7-5.4,4.1,0,3.2,4.458,3.238,4.458,4.917s-4,1.379-5.317.32l-.479,2.779a9.027,9.027,0,0,0,3.638.7c2.2,0,5.517-1.139,5.517-4.238C90.187,187.221,85.69,186.921,85.69,185.522Zm13.151-3.437H96.249a1.481,1.481,0,0,0-1.488.923l-4.806,11.456h3.359l.672-1.839h4.1l.378,1.839h2.959Zm-3.925,8,1.693-4.632.953,4.632Z" transform="translate(-65.303 -181.864)" fill="#005bac" fill-rule="evenodd"/>
</svg>
