<svg id="Group_4307" data-name="Group 4307" xmlns="http://www.w3.org/2000/svg" width="40.441" height="25.13" viewBox="0 0 40.441 25.13">
  <g id="Group_4305" data-name="Group 4305" transform="translate(0 0)">
    <path id="Path_3749" data-name="Path 3749" d="M38.925,98.593a1.987,1.987,0,0,1,1.985,1.985v20.371a1.987,1.987,0,0,1-1.985,1.985H3.244a1.987,1.987,0,0,1-1.985-1.985V100.578a1.987,1.987,0,0,1,1.985-1.985H38.925m0-.395H3.244a2.38,2.38,0,0,0-2.38,2.38v20.371a2.38,2.38,0,0,0,2.38,2.38H38.925a2.38,2.38,0,0,0,2.38-2.38V100.578a2.38,2.38,0,0,0-2.38-2.38Z" transform="translate(-0.864 -98.198)" fill="#005098"/>
  </g>
  <g id="Group_4306" data-name="Group 4306" transform="translate(3.104 7.395)">
    <path id="Path_3750" data-name="Path 3750" d="M190.88,204.06l1.71-10.038h2.737l-1.713,10.038Z" transform="translate(-178.974 -193.848)" fill="#005098"/>
    <path id="Path_3751" data-name="Path 3751" d="M255.412,192.235a7.061,7.061,0,0,0-2.453-.422c-2.7,0-4.608,1.361-4.625,3.313-.015,1.442,1.359,2.247,2.4,2.727,1.065.492,1.424.806,1.419,1.245-.008.673-.851.98-1.638.98a5.731,5.731,0,0,1-2.575-.527l-.352-.159-.384,2.247a8.651,8.651,0,0,0,3.048.535c2.877,0,4.743-1.346,4.764-3.43.011-1.141-.718-2.01-2.3-2.727-.957-.465-1.543-.774-1.537-1.245,0-.417.5-.863,1.568-.863a5.033,5.033,0,0,1,2.047.385l.247.116.37-2.176Z" transform="translate(-230.848 -191.813)" fill="#005098"/>
    <path id="Path_3752" data-name="Path 3752" d="M351.23,194.144h-2.114a1.361,1.361,0,0,0-1.433.832l-4.063,9.2h2.873s.468-1.237.576-1.509l3.5,0c.081.351.332,1.5.332,1.5h2.54l-2.215-10.032Zm-3.374,6.471c.227-.579,1.09-2.806,1.09-2.806-.015.027.225-.581.363-.958l.185.866.634,2.9Z" transform="translate(-319.65 -193.96)" fill="#005098"/>
    <path id="Path_3753" data-name="Path 3753" d="M83.073,194.114l-2.679,6.846-.286-1.391a7.824,7.824,0,0,0-3.789-4.211l2.449,8.78,2.895,0,4.308-10.019Z" transform="translate(-73.462 -193.932)" fill="#005098"/>
    <path id="Path_3754" data-name="Path 3754" d="M44.6,194.037H40.189l-.034.209c3.432.831,5.7,2.839,6.646,5.252l-.958-4.614a1.145,1.145,0,0,0-1.24-.847Z" transform="translate(-40.155 -193.861)" fill="#f6a500"/>
  </g>
</svg>
