<svg xmlns="http://www.w3.org/2000/svg" width="23.408" height="23.408" viewBox="0 0 23.408 23.408">
  <path id="Path_3371" data-name="Path 3371" d="M7.564,3V5.739M20.344,3V5.739M3,22.17V8.477A2.739,2.739,0,0,1,5.739,5.739H22.17a2.739,2.739,0,0,1,2.739,2.739V22.17M3,22.17a2.739,2.739,0,0,0,2.739,2.739H22.17a2.739,2.739,0,0,0,2.739-2.739M3,22.17V13.041A2.739,2.739,0,0,1,5.739,10.3H22.17a2.739,2.739,0,0,1,2.739,2.739V22.17" transform="translate(-2.25 -2.25)" fill="none" stroke="#000" stroke-linecap="round" stroke-linejoin="round" stroke-width="1.5"/>
</svg>
