<svg xmlns="http://www.w3.org/2000/svg" width="23.885" height="23.891" viewBox="0 0 23.885 23.891">
  <path id="Path_3373" data-name="Path 3373" d="M11.943,0a2.676,2.676,0,0,0-1.887.788L8.123,2.722H5.383A2.679,2.679,0,0,0,2.715,5.391V8.124L.781,10.065a2.678,2.678,0,0,0,0,3.774l1.934,1.934v2.739A2.679,2.679,0,0,0,5.383,21.18h2.74l1.934,1.934a2.687,2.687,0,0,0,3.78,0L15.77,21.18H18.5a2.684,2.684,0,0,0,2.675-2.669V15.772l1.933-1.934a2.678,2.678,0,0,0,0-3.774l-1.933-1.94V5.391A2.685,2.685,0,0,0,18.5,2.722H15.77L13.836.788A2.689,2.689,0,0,0,11.943,0Zm0,1.593a1.067,1.067,0,0,1,.764.317l2.169,2.169a.8.8,0,0,0,.564.235H18.5A1.06,1.06,0,0,1,19.585,5.39V8.459a.794.794,0,0,0,.229.558l2.175,2.169a1.064,1.064,0,0,1,0,1.528l-2.175,2.163a.8.8,0,0,0-.229.564V18.51A1.06,1.06,0,0,1,18.5,19.586H15.441a.8.8,0,0,0-.564.235l-2.169,2.169a1.056,1.056,0,0,1-1.522,0L9.016,19.821a.8.8,0,0,0-.564-.235H5.384A1.055,1.055,0,0,1,4.309,18.51V15.441a.8.8,0,0,0-.234-.564L1.9,12.714a1.064,1.064,0,0,1,0-1.528l2.17-2.169a.793.793,0,0,0,.234-.558V5.39A1.055,1.055,0,0,1,5.384,4.314H8.452a.8.8,0,0,0,.564-.235L11.185,1.91a1.05,1.05,0,0,1,.758-.317ZM9.334,5.926A2.389,2.389,0,1,0,11.72,8.318,2.4,2.4,0,0,0,9.334,5.926Zm0,1.593a.8.8,0,1,1-.8.8A.784.784,0,0,1,9.334,7.519Zm6.7,5.107a2.39,2.39,0,1,0,2.387,2.387A2.4,2.4,0,0,0,16.034,12.626Zm0,1.593a.8.8,0,0,1,0,1.593.8.8,0,1,1,0-1.593Zm.447-7.277a.794.794,0,0,0-.546.241L7.487,15.63a.8.8,0,0,0,1.129,1.129l8.447-8.447a.8.8,0,0,0-.582-1.37Z" transform="translate(-0.003)"/>
</svg>
