<svg xmlns="http://www.w3.org/2000/svg" width="26.03" height="24.477" viewBox="0 0 26.03 24.477">
  <g id="Group_3668" data-name="Group 3668" transform="translate(1 1)">
    <path id="Path_2882" data-name="Path 2882" d="M5.5,5.5H22.717a1.774,1.774,0,0,1,1.716,2.226l-1.4,5.324a1.774,1.774,0,0,1-1.716,1.323H8.162" transform="translate(-0.472 -1.359)" fill="#116fac" stroke="#116fac" stroke-width="2"/>
    <path id="Path_2883" data-name="Path 2883" d="M1.25,2H3.769a1.775,1.775,0,0,1,1.7,1.272L8.643,14.01a3.549,3.549,0,0,1,0,2.006l-1.1,3.729H20.474" transform="translate(-1.25 -2)" fill="none" stroke="#116fac" stroke-linecap="round" stroke-width="2"/>
    <ellipse id="Ellipse_453" data-name="Ellipse 453" cx="2.366" cy="2.366" rx="2.366" ry="2.366" transform="translate(3.845 17.745)" fill="none" stroke="#116fac" stroke-width="2"/>
    <ellipse id="Ellipse_454" data-name="Ellipse 454" cx="2.366" cy="2.366" rx="2.366" ry="2.366" transform="translate(16.858 17.745)" fill="none" stroke="#116fac" stroke-width="2"/>
  </g>
</svg>
