<svg xmlns="http://www.w3.org/2000/svg" width="23.885" height="23.891" viewBox="0 0 23.885 23.891">
  <path id="path4341" d="M44.446,49.419a2.676,2.676,0,0,0-1.887.788l-1.934,1.934h-2.74a2.679,2.679,0,0,0-2.668,2.669v2.733l-1.934,1.94a2.678,2.678,0,0,0,0,3.774l1.934,1.934v2.739A2.679,2.679,0,0,0,37.886,70.6h2.74l1.934,1.934a2.687,2.687,0,0,0,3.78,0L48.273,70.6h2.733a2.684,2.684,0,0,0,2.675-2.669V65.191l1.933-1.934a2.678,2.678,0,0,0,0-3.774l-1.933-1.94V54.81a2.685,2.685,0,0,0-2.675-2.669H48.273L46.34,50.207a2.689,2.689,0,0,0-1.893-.788Z" transform="translate(-32.507 -49.419)" fill="#006fac"/>
  <path id="Path_3450" data-name="Path 3450" d="M9.334,5.926A2.389,2.389,0,1,0,11.72,8.318,2.4,2.4,0,0,0,9.334,5.926Zm0,1.593a.8.8,0,1,1-.8.8A.784.784,0,0,1,9.334,7.519Zm6.7,5.107a2.39,2.39,0,1,0,2.387,2.387A2.4,2.4,0,0,0,16.034,12.626Zm0,1.593a.8.8,0,0,1,0,1.593.8.8,0,1,1,0-1.593Zm.447-7.277a.794.794,0,0,0-.546.241L7.487,15.63a.8.8,0,0,0,1.129,1.129l8.447-8.447a.8.8,0,0,0-.582-1.37Z" transform="translate(-0.004)" fill="#fff"/>
</svg>
