<svg xmlns="http://www.w3.org/2000/svg" width="23.734" height="23.734" viewBox="0 0 23.734 23.734">
  <path id="Path_3455" data-name="Path 3455" d="M7.727,2.25a.913.913,0,0,1,.913.913V4.989H19.594V3.163a.913.913,0,1,1,1.826,0V4.989h.913A3.651,3.651,0,0,1,25.984,8.64V22.333a3.651,3.651,0,0,1-3.651,3.651H5.9A3.651,3.651,0,0,1,2.25,22.333V8.64A3.651,3.651,0,0,1,5.9,4.989h.913V3.163A.913.913,0,0,1,7.727,2.25ZM24.158,13.2a1.826,1.826,0,0,0-1.826-1.826H5.9A1.826,1.826,0,0,0,4.076,13.2v9.129A1.826,1.826,0,0,0,5.9,24.158H22.333a1.826,1.826,0,0,0,1.826-1.826Z" transform="translate(-2.25 -2.25)" fill="#006fac" fill-rule="evenodd"/>
</svg>
